<?xml version="1.0" encoding="UTF-8" standalone="no"?>
<!-- Created with Inkscape (http://www.inkscape.org/) -->
<svg
   xmlns:dc="http://purl.org/dc/elements/1.1/"
   xmlns:cc="http://creativecommons.org/ns#"
   xmlns:rdf="http://www.w3.org/1999/02/22-rdf-syntax-ns#"
   xmlns:svg="http://www.w3.org/2000/svg"
   xmlns="http://www.w3.org/2000/svg"
   xmlns:xlink="http://www.w3.org/1999/xlink"
   xmlns:sodipodi="http://sodipodi.sourceforge.net/DTD/sodipodi-0.dtd"
   xmlns:inkscape="http://www.inkscape.org/namespaces/inkscape"
   width="128"
   height="128"
   id="svg1307"
   sodipodi:version="0.32"
   inkscape:version="0.46"
   version="1.0"
   sodipodi:docbase="/home/johann/Developpement/KDE Kopete/Icones protocoles/aim"
   sodipodi:docname="app-aim_protocol.svg"
   inkscape:output_extension="org.inkscape.output.svg.inkscape">
  <defs
     id="defs1309">
    <linearGradient
       inkscape:collect="always"
       id="linearGradient36235">
      <stop
         style="stop-color:#ffffff;stop-opacity:1;"
         offset="0"
         id="stop36237" />
      <stop
         style="stop-color:#ffffff;stop-opacity:0;"
         offset="1"
         id="stop36239" />
    </linearGradient>
    <linearGradient
       inkscape:collect="always"
       id="linearGradient28193">
      <stop
         style="stop-color:#fff6c8;stop-opacity:1;"
         offset="0"
         id="stop28195" />
      <stop
         style="stop-color:#fff6c8;stop-opacity:0;"
         offset="1"
         id="stop28197" />
    </linearGradient>
    <linearGradient
       id="linearGradient17660">
      <stop
         style="stop-color:#ffffff;stop-opacity:1;"
         offset="0"
         id="stop17662" />
      <stop
         style="stop-color:#fff6c8;stop-opacity:0;"
         offset="1"
         id="stop17664" />
    </linearGradient>
    <linearGradient
       inkscape:collect="always"
       id="linearGradient3148">
      <stop
         style="stop-color:#000000;stop-opacity:1;"
         offset="0"
         id="stop3150" />
      <stop
         style="stop-color:#000000;stop-opacity:0;"
         offset="1"
         id="stop3152" />
    </linearGradient>
    <linearGradient
       id="linearGradient2948">
      <stop
         style="stop-color:#000000;stop-opacity:1;"
         offset="0"
         id="stop2950" />
      <stop
         id="stop2956"
         offset="0.14835165"
         style="stop-color:#000000;stop-opacity:0;" />
      <stop
         style="stop-color:#000000;stop-opacity:0.39607843;"
         offset="0.42443547"
         id="stop2960" />
      <stop
         style="stop-color:#000000;stop-opacity:0.79061371;"
         offset="0.57417583"
         id="stop2958" />
      <stop
         id="stop2962"
         offset="0.78708792"
         style="stop-color:#000000;stop-opacity:0.09386282;" />
      <stop
         style="stop-color:#000000;stop-opacity:0;"
         offset="1"
         id="stop2952" />
    </linearGradient>
    <linearGradient
       id="linearGradient2334">
      <stop
         style="stop-color:#e1d5d5;stop-opacity:1;"
         offset="0"
         id="stop2336" />
      <stop
         id="stop2346"
         offset="0.07692308"
         style="stop-color:#dfe1e1;stop-opacity:0.74242425;" />
      <stop
         id="stop2342"
         offset="0.5"
         style="stop-color:#e2dcdc;stop-opacity:0.78787881;" />
      <stop
         style="stop-color:#ffffff;stop-opacity:0.81818181;"
         offset="0.78201604"
         id="stop2348" />
      <stop
         style="stop-color:#dfd9df;stop-opacity:0.87878788;"
         offset="0.9005897"
         id="stop2344" />
      <stop
         style="stop-color:#3a3a3a;stop-opacity:1;"
         offset="1"
         id="stop2338" />
    </linearGradient>
    <radialGradient
       inkscape:collect="always"
       xlink:href="#linearGradient3148"
       id="radialGradient3154"
       cx="81.562538"
       cy="151.97745"
       fx="129.69781"
       fy="151.97745"
       r="80.225449"
       gradientTransform="matrix(1,0,0,0.133333,1.779176e-16,131.7138)"
       gradientUnits="userSpaceOnUse" />
    <radialGradient
       inkscape:collect="always"
       xlink:href="#linearGradient2334"
       id="radialGradient13518"
       cx="215.72523"
       cy="141.81323"
       fx="215.72523"
       fy="141.81323"
       r="18.588182"
       gradientUnits="userSpaceOnUse" />
    <radialGradient
       inkscape:collect="always"
       xlink:href="#linearGradient2948"
       id="radialGradient22922"
       cx="114.81664"
       cy="-47.248753"
       fx="114.81664"
       fy="-47.248753"
       r="18.15625"
       gradientTransform="matrix(2.248006,-1.373331,1.294687,2.119275,-121.21154,274.10649)"
       gradientUnits="userSpaceOnUse" />
    <radialGradient
       inkscape:collect="always"
       xlink:href="#linearGradient28193"
       id="radialGradient28199"
       cx="117.21712"
       cy="-7.1366191"
       fx="117.21712"
       fy="-7.1366191"
       r="20"
       gradientTransform="matrix(6.149289e-3,1.432484,-1.799987,7.726889e-3,47.281594,-169.09948)"
       gradientUnits="userSpaceOnUse" />
    <radialGradient
       inkscape:collect="always"
       xlink:href="#linearGradient3148"
       id="radialGradient35360"
       gradientUnits="userSpaceOnUse"
       gradientTransform="matrix(1,0,0,0.133333,2.111039e-14,131.7138)"
       cx="81.562538"
       cy="151.97745"
       fx="129.69781"
       fy="151.97745"
       r="80.225449" />
    <linearGradient
       id="linearGradient40796">
      <stop
         id="stop40798"
         offset="0"
         style="stop-color:#f9ff00;stop-opacity:1;" />
      <stop
         id="stop40800"
         offset="1"
         style="stop-color:#db7300;stop-opacity:1;" />
    </linearGradient>
    <filter
       inkscape:collect="always"
       id="filter12388">
      <feGaussianBlur
         inkscape:collect="always"
         stdDeviation="0.27366291"
         id="feGaussianBlur12390" />
    </filter>
    <filter
       inkscape:collect="always"
       id="filter15301">
      <feGaussianBlur
         inkscape:collect="always"
         stdDeviation="0.59838529"
         id="feGaussianBlur15303" />
    </filter>
    <filter
       inkscape:collect="always"
       id="filter16314">
      <feGaussianBlur
         inkscape:collect="always"
         stdDeviation="0.49709959"
         id="feGaussianBlur16316" />
    </filter>
    <radialGradient
       inkscape:collect="always"
       xlink:href="#linearGradient40796"
       id="radialGradient17297"
       cx="-81.90799"
       cy="151.65424"
       fx="-81.90799"
       fy="151.65424"
       r="21.423952"
       gradientUnits="userSpaceOnUse" />
    <filter
       inkscape:collect="always"
       id="filter21189">
      <feGaussianBlur
         inkscape:collect="always"
         stdDeviation="0.27806611"
         id="feGaussianBlur21191" />
    </filter>
    <radialGradient
       inkscape:collect="always"
       xlink:href="#linearGradient17660"
       id="radialGradient21193"
       cx="64.903809"
       cy="9.6146603"
       fx="64.903809"
       fy="9.6146603"
       r="12.320192"
       gradientTransform="matrix(-0.2508264,0.9680321,-0.9999999,-0.2591096,91.721417,-55.86858)"
       gradientUnits="userSpaceOnUse" />
    <radialGradient
       inkscape:collect="always"
       xlink:href="#linearGradient40796"
       id="radialGradient23141"
       cx="60.897827"
       cy="65.679115"
       fx="60.897827"
       fy="65.679115"
       r="42.320576"
       gradientTransform="matrix(0.9678935,0.2513607,-0.2165496,0.8338496,16.178004,-1.9867789)"
       gradientUnits="userSpaceOnUse" />
    <radialGradient
       inkscape:collect="always"
       xlink:href="#linearGradient17660"
       id="radialGradient24112"
       cx="59.417316"
       cy="9.8266096"
       fx="59.417316"
       fy="9.8266096"
       r="12.320192"
       gradientTransform="matrix(0.2832589,0.9590435,-1.840076,0.5434769,61.290281,-54.358205)"
       gradientUnits="userSpaceOnUse" />
    <radialGradient
       inkscape:collect="always"
       xlink:href="#linearGradient36235"
       id="radialGradient26052"
       cx="43.518299"
       cy="61.161346"
       fx="43.518299"
       fy="61.161346"
       r="11.462245"
       gradientTransform="matrix(-2.7363123,2.6625175,-2.6906811,-2.7652556,339.0828,95.398423)"
       gradientUnits="userSpaceOnUse" />
    <filter
       inkscape:collect="always"
       id="filter27031">
      <feGaussianBlur
         inkscape:collect="always"
         stdDeviation="0.53424836"
         id="feGaussianBlur27033" />
    </filter>
    <filter
       inkscape:collect="always"
       id="filter7624">
      <feGaussianBlur
         inkscape:collect="always"
         stdDeviation="0.22305819"
         id="feGaussianBlur7626" />
    </filter>
    <filter
       inkscape:collect="always"
       id="filter8617">
      <feGaussianBlur
         inkscape:collect="always"
         stdDeviation="0.44490578"
         id="feGaussianBlur8619" />
    </filter>
  </defs>
  <sodipodi:namedview
     id="base"
     pagecolor="#ffffff"
     bordercolor="#666666"
     borderopacity="1.0"
     inkscape:pageopacity="0.0"
     inkscape:pageshadow="2"
     inkscape:zoom="1.4659853"
     inkscape:cx="174.33504"
     inkscape:cy="104.04205"
     inkscape:current-layer="layer1"
     showgrid="false"
     inkscape:document-units="px"
     inkscape:grid-bbox="true"
     showguides="true"
     inkscape:guide-bbox="true"
     inkscape:window-width="1272"
     inkscape:window-height="842"
     inkscape:window-x="0"
     inkscape:window-y="0" />
  <metadata
     id="metadata1312">
    <rdf:RDF>
      <cc:Work
         rdf:about="">
        <dc:format>image/svg+xml</dc:format>
        <dc:type
           rdf:resource="http://purl.org/dc/dcmitype/StillImage" />
      </cc:Work>
    </rdf:RDF>
  </metadata>
  <g
     id="layer1"
     inkscape:label="Layer 1"
     inkscape:groupmode="layer">
    <path
       style="opacity:1;fill:none;fill-opacity:1;fill-rule:nonzero;stroke:#000000;stroke-width:3.2;stroke-linecap:round;stroke-linejoin:round;stroke-miterlimit:4;stroke-dasharray:none;stroke-opacity:1;filter:url(#filter15301)"
       d="M 47.388667,80.575842 C 44.702757,57.553782 56.485967,44.054684 63.077767,44.252154 C 68.773687,44.422784 69.917767,48.955684 76.549937,53.802044 C 79.047097,55.626802 97.525594,49.368164 97.525594,49.368164 L 102.81214,67.103672 C 102.81214,67.103672 83.328657,76.738832 74.162467,73.242892 C 94.498617,85.606592 107.07548,105.64431 107.07548,105.64431 L 89.553137,118.09328 C 89.553137,118.09328 80.738677,103.2142 66.232647,94.048012 C 52.749817,108.75655 41.228137,116.81427 28.118347,119.62808 C 24.728987,112.55093 23.002327,108.62865 17.886317,99.164022 C 28.118347,95.497552 36.943467,94.048012 47.388667,80.575842 z "
       id="path14330"
       sodipodi:nodetypes="cssccccccccc"
       inkscape:r_cx="true"
       inkscape:r_cy="true" />
    <path
       sodipodi:type="arc"
       style="opacity:0.2213115;fill:url(#radialGradient3154);fill-opacity:1;fill-rule:nonzero;stroke:none;stroke-width:0.1;stroke-linecap:round;stroke-linejoin:round;stroke-miterlimit:4;stroke-dasharray:none;stroke-dashoffset:4;stroke-opacity:1"
       id="path3146"
       sodipodi:cx="81.562538"
       sodipodi:cy="151.97745"
       sodipodi:rx="80.225449"
       sodipodi:ry="10.696727"
       d="M 161.78799 151.97745 A 80.225449 10.696727 0 1 1  1.3370895,151.97745 A 80.225449 10.696727 0 1 1  161.78799 151.97745 z"
       transform="matrix(-0.799642,0,0,0.560668,129.3725,37.21709)"
       inkscape:r_cx="true"
       inkscape:r_cy="true" />
    <path
       sodipodi:type="arc"
       style="fill:none;fill-opacity:1;fill-rule:nonzero;stroke:#000000;stroke-width:2.32231498;stroke-linecap:round;stroke-linejoin:round;stroke-miterlimit:4;stroke-dasharray:none;stroke-opacity:1;filter:url(#filter12388)"
       id="path11365"
       sodipodi:cx="215.72523"
       sodipodi:cy="141.81323"
       sodipodi:rx="18.588182"
       sodipodi:ry="18.588182"
       d="M 234.31342 141.81323 A 18.588182 18.588182 0 1 1  197.13705,141.81323 A 18.588182 18.588182 0 1 1  234.31342 141.81323 z"
       inkscape:r_cx="true"
       inkscape:r_cy="true"
       transform="matrix(1.076512,0,0,1.076512,-157.30399,-130.174)" />
    <path
       transform="matrix(1.076512,0,0,1.076512,-157.30399,-130.174)"
       inkscape:r_cy="true"
       inkscape:r_cx="true"
       d="M 234.31342 141.81323 A 18.588182 18.588182 0 1 1  197.13705,141.81323 A 18.588182 18.588182 0 1 1  234.31342 141.81323 z"
       sodipodi:ry="18.588182"
       sodipodi:rx="18.588182"
       sodipodi:cy="141.81323"
       sodipodi:cx="215.72523"
       id="path6246"
       style="fill:none;fill-opacity:1;fill-rule:nonzero;stroke:#000000;stroke-width:2.32231498;stroke-linecap:round;stroke-linejoin:round;stroke-miterlimit:4;stroke-dasharray:none;stroke-opacity:1"
       sodipodi:type="arc" />
    <path
       sodipodi:type="arc"
       style="opacity:1;fill:url(#radialGradient17297);fill-opacity:1;fill-rule:nonzero;stroke:#000000;stroke-width:2.94300008;stroke-linecap:round;stroke-linejoin:round;stroke-miterlimit:4;stroke-dasharray:none;stroke-opacity:1"
       id="path10889"
       sodipodi:cx="-80.662476"
       sodipodi:cy="156.13808"
       sodipodi:rx="19.952452"
       sodipodi:ry="19.952452"
       d="M -60.710024 156.13808 A 19.952452 19.952452 0 1 1  -100.61493,156.13808 A 19.952452 19.952452 0 1 1  -60.710024 156.13808 z"
       inkscape:r_cx="true"
       inkscape:r_cy="true"
       transform="matrix(0.96816,0,0,0.96816,153.021,-128.67699)" />
    <path
       style="opacity:0.58486185;fill:url(#radialGradient28199);fill-opacity:1;fill-rule:nonzero;stroke:none;stroke-width:0.92892599;stroke-linecap:round;stroke-linejoin:round;stroke-miterlimit:4;stroke-dasharray:none;stroke-opacity:1"
       d="M 74.551814,3.0214413 C 63.684654,3.2281543 54.926814,12.136392 54.926814,23.052691 C 54.926814,31.831924 60.587994,39.265226 68.458064,41.958941 C 67.982284,41.017147 67.527014,40.047694 67.145564,39.021441 C 63.203074,28.414701 66.127314,17.515064 73.676814,14.708941 C 81.070024,11.960913 90.163124,17.997213 94.239314,28.208941 C 94.681764,26.555976 94.926814,24.844578 94.926814,23.052691 C 94.926814,12.006949 85.972554,3.0214413 74.926814,3.0214413 C 74.797374,3.0214413 74.680674,3.0189903 74.551814,3.0214413 z "
       id="path2741"
       inkscape:r_cx="true"
       inkscape:r_cy="true" />
    <path
       inkscape:r_cy="true"
       inkscape:r_cx="true"
       sodipodi:nodetypes="cssccccccccc"
       id="path8012"
       d="M 47.388667,80.575842 C 44.702757,57.553782 56.485967,44.054684 63.077767,44.252154 C 68.773687,44.422784 69.917767,48.955684 76.549937,53.802044 C 79.047097,55.626802 97.525594,49.368164 97.525594,49.368164 L 102.81214,67.103672 C 102.81214,67.103672 83.328657,76.738832 74.162467,73.242892 C 94.498617,85.606592 107.07548,105.64431 107.07548,105.64431 L 89.553137,118.09328 C 89.553137,118.09328 80.738677,103.2142 66.232647,94.048012 C 52.749817,108.75655 41.228137,116.81427 28.118347,119.62808 C 24.728987,112.55093 23.002327,108.62865 17.886317,99.164022 C 28.118347,95.497552 36.943467,94.048012 47.388667,80.575842 z "
       style="opacity:1;fill:none;fill-opacity:1;fill-rule:nonzero;stroke:#000000;stroke-width:3.2;stroke-linecap:round;stroke-linejoin:round;stroke-miterlimit:4;stroke-dasharray:none;stroke-opacity:1" />
    <path
       transform="matrix(1.076512,0,0,1.076512,-157.30399,-130.174)"
       inkscape:r_cy="true"
       inkscape:r_cx="true"
       d="M 234.31342 141.81323 A 18.588182 18.588182 0 1 1  197.13705,141.81323 A 18.588182 18.588182 0 1 1  234.31342 141.81323 z"
       sodipodi:ry="18.588182"
       sodipodi:rx="18.588182"
       sodipodi:cy="141.81323"
       sodipodi:cx="215.72523"
       id="path12637"
       style="opacity:0.16743116;fill:url(#radialGradient13518);fill-opacity:1;fill-rule:nonzero;stroke:none;stroke-width:0.92892599;stroke-linecap:round;stroke-linejoin:round;stroke-miterlimit:4;stroke-dasharray:none;stroke-opacity:1;filter:url(#filter7624)"
       sodipodi:type="arc" />
    <path
       style="opacity:0.28211012;fill:url(#radialGradient22922);fill-opacity:1;fill-rule:nonzero;stroke:none;stroke-width:0.92892599;stroke-linecap:round;stroke-linejoin:round;stroke-miterlimit:4;stroke-dasharray:none;stroke-opacity:1;filter:url(#filter16314)"
       d="M 57.788241,25.164023 C 54.309261,26.924072 56.843251,33.658011 57.868501,35.204349 C 64.257761,44.841042 74.707011,44.309463 84.089151,38.479908 C 89.783851,34.941534 93.087201,28.993427 93.498261,22.773589 C 92.789651,23.274963 92.050571,23.746687 91.301591,24.212059 C 79.165841,31.75256 68.430101,30.499455 57.788241,25.164023 z "
       id="path14393"
       inkscape:r_cx="true"
       inkscape:r_cy="true"
       sodipodi:nodetypes="csscsc" />
    <path
       sodipodi:nodetypes="cscsss"
       inkscape:r_cy="true"
       inkscape:r_cx="true"
       id="path20206"
       d="M 71.877211,3.0818296 C 62.877326,4.058604 55.195172,12.458703 55.195172,23.202414 C 55.195172,24.270947 55.283622,25.335312 55.445172,26.358664 C 60.154783,18.263567 64.671371,17.345515 71.234797,13.70161 C 74.244125,12.03088 78.241168,9.8631868 79.246187,7.5990037 C 81.545574,2.4187732 76.702306,2.5581528 71.877211,3.0818296 z "
       style="opacity:1;fill:url(#radialGradient21193);fill-opacity:1.0;fill-rule:nonzero;stroke:none;stroke-width:0.92892599;stroke-linecap:round;stroke-linejoin:round;stroke-miterlimit:4;stroke-dasharray:none;stroke-opacity:1;filter:url(#filter21189)" />
    <path
       style="opacity:1;fill:url(#radialGradient24112);fill-opacity:1.0;fill-rule:nonzero;stroke:none;stroke-width:0.92892599;stroke-linecap:round;stroke-linejoin:round;stroke-miterlimit:4;stroke-dasharray:none;stroke-opacity:1;filter:url(#filter8617)"
       d="M 71.877211,3.0818296 C 62.877326,4.058604 55.195172,12.458703 55.195172,23.202414 C 55.195172,24.270947 55.283622,25.335312 55.445172,26.358664 C 60.154783,18.263567 64.671371,17.345515 71.234797,13.70161 C 74.244125,12.03088 78.241168,9.8631868 79.246187,7.5990037 C 81.545574,2.4187732 76.702306,2.5581528 71.877211,3.0818296 z "
       id="path15278"
       inkscape:r_cx="true"
       inkscape:r_cy="true"
       sodipodi:nodetypes="cscsss" />
    <path
       style="opacity:1;fill:url(#radialGradient23141);fill-opacity:1.0;fill-rule:nonzero;stroke:none;stroke-width:3.20000005;stroke-linecap:round;stroke-linejoin:round;stroke-miterlimit:4;stroke-dasharray:none;stroke-opacity:1"
       d="M 62.441914,45.910664 C 54.818916,47.517682 50.809987,58.041377 49.285664,65.698187 C 48.034173,71.984541 48.733418,76.943294 48.88964,81.116633 C 37.431993,96.50422 24.694704,98.021755 20.26545,100.03125 C 23.048816,105.71977 26.297746,112.11052 29.035664,117.84631 C 49.011709,113.18668 64.02217,93.146701 65.914812,92.481653 C 67.631689,91.878366 76.978153,100.36111 82.011036,105.45551 C 84.77969,108.602 87.74197,112.33738 90.03125,115.8441 C 95.166504,111.91796 100.60542,108.67421 104.9066,105.13639 C 94.04098,90.446238 84.952214,81.666751 72.580158,74.055529 C 72.442456,72.221776 73.29058,71.334838 74.859858,71.781364 C 77.445103,72.516976 79.819209,72.531188 82.942264,72.073885 C 87.974916,71.336964 94.951874,69.200948 100.94668,66.232342 C 99.515055,61.452172 97.923834,56.294075 96.520219,51.417365 C 89.614476,53.177168 80.164877,56.631902 76.484899,55.486757 C 71.702288,53.340235 67.414846,44.862312 62.441914,45.910664 z "
       id="path31695"
       inkscape:r_cx="true"
       inkscape:r_cy="true"
       sodipodi:nodetypes="cscccsccccsscccs" />
    <path
       inkscape:r_cy="true"
       inkscape:r_cx="true"
       transform="matrix(0.799642,0,0,0.560668,-1.069193,36.19389)"
       d="M 161.78799 151.97745 A 80.225449 10.696727 0 1 1  1.3370895,151.97745 A 80.225449 10.696727 0 1 1  161.78799 151.97745 z"
       sodipodi:ry="10.696727"
       sodipodi:rx="80.225449"
       sodipodi:cy="151.97745"
       sodipodi:cx="81.562538"
       id="path35358"
       style="opacity:0.2213115;fill:url(#radialGradient35360);fill-opacity:1;fill-rule:nonzero;stroke:none;stroke-width:0.1;stroke-linecap:round;stroke-linejoin:round;stroke-miterlimit:4;stroke-dasharray:none;stroke-dashoffset:4;stroke-opacity:1"
       sodipodi:type="arc" />
    <path
       inkscape:r_cy="true"
       inkscape:r_cx="true"
       sodipodi:nodetypes="cscc"
       id="path31693"
       d="M 47.158452,80.738902 C 44.472542,57.716842 56.377174,41.333061 65.741606,44.294628 C 71.839518,46.223136 51.544673,43.575089 58.243144,71.359547 C 55.045623,84.064314 36.713252,94.211072 47.158452,80.738902 z "
       style="opacity:0.86009174;fill:url(#radialGradient26052);fill-opacity:1.0;fill-rule:nonzero;stroke:none;stroke-width:1;stroke-linecap:round;stroke-linejoin:round;stroke-miterlimit:4;stroke-dasharray:none;stroke-opacity:1;filter:url(#filter27031)" />
  </g>
</svg>
